# xmcd
#
# Track frame offsets: 
#        150
#        16445
#        35924
#        51256
#        67666
#        83087
#        99238
#        114134
#        135002
#        158048
#        178211
#        193422
#
# Disc length: 2819 seconds
#
# Revision: 0
# Processed by: cddbd v1.5.2PL0 Copyright (c) Steve Scherf et al.
# Submitted via: ExactAudioCopy v1.3
#
DISCID=930b010c
DTITLE=INNA - HOT
DYEAR=1900
DGENRE=Electronic
TTITLE0=HOT
TTITLE1=DEJA VU
TTITLE2=FEVER
TTITLE3=LOVE
TTITLE4=AMAZING
TTITLE5=DON'T LET THE MUSIC DIE
TTITLE6=10 MINUTES
TTITLE7=ON and ON
TTITLE8=LADIES
TTITLE9=LEFT RIGHT
TTITLE10=DAYS NIGHTS
TTITLE11=ON and ON [Chillout Mix]
EXTD=
EXTT0=
EXTT1=
EXTT2=
EXTT3=
EXTT4=
EXTT5=
EXTT6=
EXTT7=
EXTT8=
EXTT9=
EXTT10=
EXTT11=
PLAYORDER=
